<?xml version="1.0" encoding="UTF-8"?>
<svg id="Layer_2" data-name="Layer 2" xmlns="http://www.w3.org/2000/svg" viewBox="0 0 162.07 162.07">
  <defs>
    <style>
      .cls-1 {
        fill: #303030;
      }

      .cls-2 {
        fill: #f7941d;
      }
    </style>
  </defs>
  <g id="Layer_1-2" data-name="Layer 1">
    <g>
      <rect class="cls-1" width="162.07" height="162.07" rx="22.29" ry="22.29"/>
      <path class="cls-2" d="M135.85,71.97c-.8-2.86-1.86-5.58-3.19-8.11-1.4-2.52-2.99-4.78-4.92-6.84-1.93-1.99-4.05-3.79-6.38-5.25-2.33-1.46-4.85-2.59-7.58-3.39-2.72-.8-5.52-1.2-8.51-1.2s-5.78.4-8.51,1.2c-2.72.8-5.25,1.86-7.58,3.39-2.33,1.53-4.45,3.26-6.38,5.32-.64.68-1.23,1.39-1.81,2.12-.58-.75-1.19-1.48-1.85-2.19-1.93-1.99-4.05-3.79-6.38-5.25-2.33-1.46-4.85-2.59-7.57-3.39-2.72-.8-5.58-1.2-8.51-1.2s-5.78.4-8.51,1.2c-2.72.8-5.25,1.86-7.58,3.39-2.33,1.53-4.45,3.26-6.38,5.32-1.93,2.06-3.59,4.32-4.92,6.84-1.33,2.53-2.39,5.18-3.12,8.11-.73,2.92-1.13,5.91-1.13,9.04s.4,6.18,1.13,9.04c.73,2.92,1.73,5.58,3.12,8.11,1.4,2.53,2.99,4.78,4.92,6.84,1.93,1.99,4.05,3.79,6.38,5.25,2.33,1.46,4.85,2.59,7.58,3.39s5.58,1.2,8.51,1.2,5.85-.4,8.51-1.33c2.72-.8,5.25-1.93,7.57-3.39,2.33-1.46,4.45-3.19,6.38-5.25.63-.67,1.21-1.38,1.78-2.1.59.77,1.21,1.51,1.88,2.23,1.93,1.99,4.05,3.79,6.38,5.25,2.33,1.46,4.85,2.59,7.58,3.39,2.72.8,5.52,1.2,8.51,1.2s5.78-.4,8.51-1.33c2.72-.8,5.25-1.93,7.58-3.39,2.33-1.46,4.45-3.19,6.38-5.25,1.93-2.06,3.59-4.32,4.92-6.84,1.4-2.53,2.46-5.18,3.19-8.11.73-2.86,1.13-5.85,1.13-8.97s-.4-6.11-1.13-9.04ZM72.46,88.98c-.8,2.46-1.99,4.58-3.46,6.45-1.53,1.86-3.32,3.32-5.38,4.39-2.13,1.06-4.39,1.59-6.91,1.59s-4.72-.53-6.71-1.59c-2.06-1.06-3.85-2.52-5.32-4.39-1.53-1.86-2.66-3.99-3.52-6.45-.86-2.46-1.26-5.12-1.26-7.84s.4-5.38,1.26-7.91c.86-2.53,2.06-4.65,3.52-6.51s3.26-3.32,5.32-4.39,4.32-1.59,6.78-1.59,4.72.53,6.78,1.59c2.06,1.06,3.85,2.53,5.38,4.39,1.53,1.86,2.66,3.99,3.52,6.51.76,2.22,1.14,4.5,1.23,6.91,0,.31-.03.62-.03.93s.02.63.03.95c-.09,2.45-.51,4.76-1.23,6.96ZM121.04,88.98c-.8,2.46-1.99,4.58-3.46,6.45-1.53,1.86-3.32,3.32-5.38,4.39-2.13,1.06-4.39,1.59-6.91,1.59s-4.78-.53-6.71-1.59c-2.06-1.06-3.85-2.52-5.32-4.39-1.53-1.86-2.66-3.99-3.52-6.45-.86-2.46-1.26-5.12-1.26-7.84s.4-5.38,1.26-7.91c.86-2.53,2.06-4.65,3.52-6.51s3.26-3.32,5.32-4.39,4.32-1.59,6.78-1.59,4.72.53,6.78,1.59,3.85,2.53,5.38,4.39,2.66,3.99,3.52,6.51c.86,2.52,1.26,5.12,1.26,7.91s-.47,5.38-1.26,7.84Z"/>
    </g>
  </g>
</svg>