<?xml version="1.0" encoding="UTF-8"?>
<svg id="Layer_2" data-name="Layer 2" xmlns="http://www.w3.org/2000/svg" viewBox="0 0 566.93 67.71">
  <defs>
    <style>
      .cls-1 {
        fill: #303030;
      }

      .cls-2 {
        fill: #f7941d;
      }
    </style>
  </defs>
  <g id="Layer_1-2" data-name="Layer 1">
    <g>
      <path class="cls-1" d="M71.9,1.26h55.55v11.83h-33.49l-15.02,53.49h-18.61l-9.9-40.8-10.1,40.8h-18.41L6.64,13.09H0V1.26h28.04v11.83h-6.84l9.63,35.22L42.46,1.4h16.01l11.36,46.91,9.63-35.22h-7.58V1.26Z"/>
      <path class="cls-1" d="M180.01,1.26h64.45c2.99,0,5.85.4,8.57,1.2,2.72.8,5.32,1.86,7.64,3.26,2.39,1.4,4.52,3.12,6.45,5.05s3.59,4.19,4.98,6.58,2.46,5.05,3.19,7.77,1.13,5.71,1.13,8.7-.4,5.91-1.13,8.7c-.73,2.79-1.79,5.38-3.19,7.84s-3.06,4.65-4.98,6.64c-1.93,1.99-4.12,3.72-6.45,5.12-2.39,1.4-4.92,2.52-7.64,3.32-2.72.8-5.58,1.2-8.57,1.2h-25.12v-11.83h5.25V13.16h-44.59V1.26ZM238.88,13.09v41.66h5.45c2.33,0,4.52-.53,6.58-1.66,2.06-1.06,3.85-2.59,5.38-4.45,1.53-1.86,2.72-4.12,3.65-6.64.86-2.52,1.33-5.25,1.33-8.24s-.47-5.65-1.33-8.17-2.13-4.72-3.65-6.58-3.32-3.32-5.38-4.39-4.25-1.59-6.58-1.59c.07.07-5.45.07-5.45.07Z"/>
      <path class="cls-1" d="M281.07,1.26h51.96v22.26h-14.09v-9.24h-16.74v12.89h12.96v12.49h-12.96v15.15h16.74v-11.63h14.02v23.39h-51.96v-11.83h6.84V14.22h-6.84l.07-12.96h0Z"/>
      <path class="cls-1" d="M387.99,14.75l-32.56,39h18.47v-10.1h14.02v22.92h-49.64v-13.49l31.76-39.07h-17.61v10.37h-14.02V1.26h49.64l-.07,13.49h0Z"/>
      <path class="cls-1" d="M396.09,1.26h27.97v11.83h-6.91v41.73h6.91v11.83h-27.97v-11.83h6.78V13.09h-6.78V1.26Z"/>
      <path class="cls-1" d="M480.55,66.58v-11.23c-1.79,3.12-3.52,5.45-5.18,6.91-1.66,1.46-3.59,2.66-5.78,3.52-2.19.86-4.98,1.33-8.57,1.33-1.79,0-3.59-.27-5.32-.6-1.79-.4-3.52-.93-5.18-1.66s-3.32-1.53-4.92-2.52-3.06-2.13-4.32-3.46c-3.19-3.19-5.65-6.98-7.44-11.16-1.79-4.25-2.66-8.84-2.66-13.82,0-3.06.4-6.05,1.13-8.9.73-2.86,1.79-5.58,3.12-8.04,1.33-2.52,2.99-4.78,4.92-6.84,1.93-2.06,4.05-3.79,6.38-5.25,2.33-1.46,4.85-2.59,7.58-3.39,2.72-.8,5.52-1.2,8.51-1.2,3.39,0,6.31.47,8.84,1.33,2.52.93,5.18,2.59,8.04,5.05h9.63v14.55h-13.29c-1.33-2.06-2.59-3.52-3.72-4.45s-2.46-1.66-3.79-2.26-3.26-.93-5.71-.93-4.65.53-6.71,1.66c-2.06,1.06-3.85,2.59-5.38,4.39-1.53,1.86-2.66,4.05-3.52,6.58-.86,2.52-1.33,5.12-1.33,7.71s.4,5.12,1.2,7.44c.8,2.39,1.93,4.45,3.52,6.38,1.59,1.86,3.46,3.32,5.52,4.32,2.13,1,4.32,1.53,6.71,1.53,3.06,0,5.71-.86,7.97-2.66s3.92-4.19,4.92-7.31h-12.49v-11.83h30.23v34.88l-12.89-.07h0Z"/>
      <path class="cls-2" d="M210.57,24.78c-.8-2.86-1.86-5.58-3.19-8.11-1.4-2.52-2.99-4.78-4.92-6.84-1.93-1.99-4.05-3.79-6.38-5.25-2.33-1.46-4.85-2.59-7.58-3.39-2.72-.8-5.52-1.2-8.51-1.2s-5.78.4-8.51,1.2c-2.72.8-5.25,1.86-7.58,3.39-2.33,1.53-4.45,3.26-6.38,5.32-.64.68-1.23,1.39-1.81,2.12-.58-.75-1.19-1.48-1.85-2.19-1.93-1.99-4.05-3.79-6.38-5.25-2.33-1.46-4.85-2.59-7.57-3.39-2.72-.8-5.58-1.2-8.51-1.2s-5.78.4-8.51,1.2c-2.72.8-5.25,1.86-7.58,3.39-2.33,1.53-4.45,3.26-6.38,5.32-1.93,2.06-3.59,4.32-4.92,6.84-1.33,2.53-2.39,5.18-3.12,8.11-.73,2.92-1.13,5.91-1.13,9.04s.4,6.18,1.13,9.04c.73,2.92,1.73,5.58,3.12,8.11,1.4,2.53,2.99,4.78,4.92,6.84,1.93,1.99,4.05,3.79,6.38,5.25,2.33,1.46,4.85,2.59,7.58,3.39s5.58,1.2,8.51,1.2,5.85-.4,8.51-1.33c2.72-.8,5.25-1.93,7.57-3.39,2.33-1.46,4.45-3.19,6.38-5.25.63-.67,1.21-1.38,1.78-2.1.59.77,1.21,1.51,1.88,2.23,1.93,1.99,4.05,3.79,6.38,5.25,2.33,1.46,4.85,2.59,7.58,3.39,2.72.8,5.52,1.2,8.51,1.2s5.78-.4,8.51-1.33c2.72-.8,5.25-1.93,7.58-3.39,2.33-1.46,4.45-3.19,6.38-5.25,1.93-2.06,3.59-4.32,4.92-6.84,1.4-2.53,2.46-5.18,3.19-8.11.73-2.86,1.13-5.85,1.13-8.97s-.4-6.11-1.13-9.04ZM147.18,41.8c-.8,2.46-1.99,4.58-3.46,6.45-1.53,1.86-3.32,3.32-5.38,4.39-2.13,1.06-4.39,1.59-6.91,1.59s-4.72-.53-6.71-1.59c-2.06-1.06-3.85-2.52-5.32-4.39-1.53-1.86-2.66-3.99-3.52-6.45-.86-2.46-1.26-5.12-1.26-7.84s.4-5.38,1.26-7.91c.86-2.53,2.06-4.65,3.52-6.51s3.26-3.32,5.32-4.39,4.32-1.59,6.78-1.59,4.72.53,6.78,1.59c2.06,1.06,3.85,2.53,5.38,4.39,1.53,1.86,2.66,3.99,3.52,6.51.76,2.22,1.14,4.5,1.23,6.91,0,.31-.03.62-.03.93s.02.63.03.95c-.09,2.45-.51,4.76-1.23,6.96ZM195.75,41.8c-.8,2.46-1.99,4.58-3.46,6.45-1.53,1.86-3.32,3.32-5.38,4.39-2.13,1.06-4.39,1.59-6.91,1.59s-4.78-.53-6.71-1.59c-2.06-1.06-3.85-2.52-5.32-4.39-1.53-1.86-2.66-3.99-3.52-6.45-.86-2.46-1.26-5.12-1.26-7.84s.4-5.38,1.26-7.91c.86-2.53,2.06-4.65,3.52-6.51s3.26-3.32,5.32-4.39,4.32-1.59,6.78-1.59,4.72.53,6.78,1.59,3.85,2.53,5.38,4.39,2.66,3.99,3.52,6.51c.86,2.52,1.26,5.12,1.26,7.91s-.47,5.38-1.26,7.84Z"/>
      <g>
        <path class="cls-2" d="M533.24.33c-18.61,0-33.69,15.08-33.69,33.69s15.08,33.69,33.69,33.69,33.69-15.08,33.69-33.69S551.85.33,533.24.33ZM515.17,45.98c-.2.47-.47.8-.73,1.13-.33.33-.66.53-1.13.73-.4.2-.86.27-1.4.27s-1-.07-1.4-.27c-.47-.2-.8-.47-1.13-.73-.33-.33-.53-.66-.73-1.13s-.27-.93-.27-1.4.07-.93.27-1.4c.2-.4.4-.8.73-1.13s.66-.6,1.13-.8c.47-.2.93-.27,1.4-.27s.93.07,1.33.27c.47.2.8.47,1.13.73.33.33.6.66.73,1.13.2.47.27.86.27,1.4s0,1-.2,1.46ZM530.58,24.98h-2.92v17.61h2.92v4.98h-11.83v-4.98h2.86v-17.61h-2.86v-4.98h11.83v4.98ZM556.3,40.67c-.6,1.06-1.26,1.99-2.06,2.79-.8.86-1.73,1.53-2.72,2.13s-2.06,1.06-3.26,1.4c-1.13.33-2.39.47-3.65.47h-10.57v-4.98h2.19v-17.54h-2.19v-4.98h10.57c1.26,0,2.46.13,3.65.47,1.13.33,2.26.8,3.26,1.4s1.93,1.33,2.72,2.13c.8.86,1.53,1.73,2.06,2.79.6,1,1.06,2.13,1.33,3.26.33,1.2.47,2.39.47,3.65s-.13,2.52-.47,3.65c-.27,1.26-.73,2.39-1.33,3.39Z"/>
        <path class="cls-2" d="M549.65,27.51c-.66-.8-1.4-1.4-2.26-1.86-.86-.47-1.79-.66-2.79-.66h-2.33v17.61h2.33c1,0,1.93-.2,2.79-.66s1.59-1.06,2.26-1.86c.66-.8,1.13-1.73,1.53-2.79s.53-2.19.53-3.46c0-1.2-.2-2.39-.53-3.46s-.86-2.06-1.53-2.86Z"/>
      </g>
    </g>
  </g>
</svg>